<svg xmlns="http://www.w3.org/2000/svg" xmlns:xlink="http://www.w3.org/1999/xlink">
  <symbol id="send" viewBox="0 0 28 28">
    <path
      d="M3.78963301,2.77233335 L24.8609339,12.8499121 C25.4837277,13.1477699 25.7471402,13.8941055 25.4492823,14.5168992 C25.326107,14.7744476 25.1184823,14.9820723 24.8609339,15.1052476 L3.78963301,25.1828263 C3.16683929,25.4806842 2.42050372,25.2172716 2.12264586,24.5944779 C1.99321184,24.3238431 1.96542524,24.015685 2.04435886,23.7262618 L4.15190935,15.9983421 C4.204709,15.8047375 4.36814355,15.6614577 4.56699265,15.634447 L14.7775879,14.2474874 C14.8655834,14.2349166 14.938494,14.177091 14.9721837,14.0981464 L14.9897199,14.0353553 C15.0064567,13.9181981 14.9390703,13.8084248 14.8334007,13.7671556 L14.7775879,13.7525126 L4.57894108,12.3655968 C4.38011873,12.3385589 4.21671819,12.1952832 4.16392965,12.0016992 L2.04435886,4.22889788 C1.8627142,3.56286745 2.25538645,2.87569101 2.92141688,2.69404635 C3.21084015,2.61511273 3.51899823,2.64289932 3.78963301,2.77233335 Z"
    ></path>
  </symbol>

  <symbol id="pencil" viewBox="0 0 31.614 31.614">
    <path d="M4.372,21.711l6.548,5.871l13.889-15.479L18.26,6.229L4.372,21.711z M16.619,13.415l-7.798,8.693
		c-0.098,0.108-0.234,0.175-0.38,0.183c-0.146,0.009-0.29-0.042-0.398-0.141l-0.387-0.348c-0.226-0.203-0.245-0.551-0.042-0.777
		l7.798-8.693c0.098-0.109,0.234-0.175,0.38-0.183c0.146-0.008,0.29,0.043,0.398,0.14l0.387,0.347
		C16.803,12.84,16.821,13.188,16.619,13.415z M18.887,9.282l0.386,0.346c0.228,0.203,0.246,0.552,0.043,0.778l-0.678,0.756
		c-0.1,0.109-0.235,0.174-0.381,0.183c-0.146,0.008-0.289-0.042-0.398-0.14l-0.387-0.347c-0.108-0.098-0.174-0.234-0.184-0.381
		c-0.008-0.146,0.043-0.29,0.142-0.398l0.678-0.756C18.312,9.097,18.661,9.078,18.887,9.282z M20.501,3.732l6.547,5.873
		l-1.608,1.793l-6.546-5.873L20.501,3.732z M29.681,3.817l-3.711-3.33c-0.783-0.703-1.986-0.637-2.688,0.146l-2.188,2.44
		l6.548,5.872l2.188-2.438c0.336-0.376,0.513-0.871,0.482-1.375C30.284,4.627,30.057,4.154,29.681,3.817z M27.507,6.498
		l-3.969-3.559l1.146-1.276l3.968,3.558L27.507,6.498z M1.336,30.403c-0.101,0.35,0.007,0.727,0.277,0.968
		c0.27,0.243,0.656,0.31,0.992,0.173l7.529-3.084l-6.546-5.873L1.336,30.403z M7.991,28.088l-2.958,1.211l-1.73-1.552l0.885-3.071
		L7.991,28.088z"/>
  </symbol>

  <symbol id="remove" viewBox="0 0 52 52">
	  <path d="M45.5,10H33V6c0-2.2-1.8-4-4-4h-6c-2.2,0-4,1.8-4,4v4H6.5C5.7,10,5,10.7,5,11.5v3C5,15.3,5.7,16,6.5,16h39
		c0.8,0,1.5-0.7,1.5-1.5v-3C47,10.7,46.3,10,45.5,10z M23,7c0-0.6,0.4-1,1-1h4c0.6,0,1,0.4,1,1v3h-6V7z"/>
    <path d="M41.5,20h-31C9.7,20,9,20.7,9,21.5V45c0,2.8,2.2,5,5,5h24c2.8,0,5-2.2,5-5V21.5C43,20.7,42.3,20,41.5,20z
		 M23,42c0,0.6-0.4,1-1,1h-2c-0.6,0-1-0.4-1-1V28c0-0.6,0.4-1,1-1h2c0.6,0,1,0.4,1,1V42z M33,42c0,0.6-0.4,1-1,1h-2
		c-0.6,0-1-0.4-1-1V28c0-0.6,0.4-1,1-1h2c0.6,0,1,0.4,1,1V42z"/>
  </symbol>
</svg>